<svg width="470" height="366" viewBox="0 0 470 366" fill="none" xmlns="http://www.w3.org/2000/svg">
<g clip-path="url(#clip0)">
<path d="M328.228 321.84H327.129V201.41C327.13 200.919 327.021 200.434 326.81 199.991C326.6 199.548 326.293 199.158 325.913 198.849L326.607 197.996C327.114 198.408 327.523 198.928 327.804 199.519C328.084 200.11 328.229 200.756 328.228 201.41V321.84Z" fill="#3F3D56"/>
<path d="M216.274 12.7847C216.558 13.4344 216.77 14.1135 216.906 14.8097C216.598 13.7477 216.356 13.0268 216.274 12.7847Z" fill="#3F3D56"/>
<path d="M226.022 46.4297C226.022 46.4297 226.022 47.1891 225.203 49.9295L226.022 46.4297Z" fill="#3F3D56"/>
<path d="M326.356 161.062C304.744 172.343 276.472 182.083 268.004 184.906C274.461 183.222 293.254 180.955 322.372 199.148C358.958 222.001 398.078 206.764 398.078 206.764C398.078 206.764 389.384 223.454 370.91 224.538C352.436 225.628 304.261 195.158 287.962 203.864C271.659 212.569 264.053 201.685 257.531 223.454C251.014 245.218 239.062 304.705 252.827 338.08L266.587 371.45H188.348C188.348 371.45 216.604 295.999 201.025 249.571C192.305 223.57 180.062 204.739 175.495 195.169C173.204 190.376 172.841 187.911 175.809 188.032C177.495 188.103 180.259 189.011 184.364 190.805C184.364 190.805 165.527 172.305 159.373 172.305C153.213 172.305 124.232 169.405 114.819 159.609C114.819 159.609 101.417 150.177 77.5076 173.394C53.5987 196.611 59.396 196.611 38.0257 194.795C16.9907 193.007 0.511039 182.788 0 182.468C0.60995 182.716 25.1783 192.55 40.1963 187.542C55.412 182.463 68.4518 163.236 81.8542 156.709C95.2566 150.177 103.224 141.472 121.336 150.904L109.401 122.723L106.131 115.003L106.126 114.992C106.126 114.992 102.136 62.0318 94.5313 58.4053C86.9261 54.7734 91.6354 45.3469 77.5076 43.531C77.5076 43.531 94.894 41.3518 98.1525 53.3261C101.417 65.295 123.875 129.866 123.875 129.866C123.875 129.866 137.634 157.43 152.85 150.904C168.066 144.372 147.053 107.739 147.053 107.739L120.973 95.7646C120.973 95.7646 140.536 95.0382 152.488 106.286C164.439 117.529 165.165 153.804 165.165 153.804C165.165 153.804 195.228 158.157 202.476 174.484C202.476 174.484 207.185 159.973 198.129 151.267C195.865 149.088 193.486 145.302 191.195 140.85C182.509 123.763 179.369 104.385 182.216 85.4246C183.562 76.1467 184.392 67.0724 182.914 64.9318C179.655 60.2158 165.89 31.1989 164.802 23.5774C163.719 15.9614 165.89 0.00292969 165.89 0.00292969C165.89 0.00292969 166.253 19.5878 170.599 25.7566C174.946 31.9253 187.26 62.395 187.26 62.395C187.26 62.395 187.26 100.844 197.404 119.708C207.548 138.572 227.105 159.609 226.022 173.394V181.373C226.022 181.373 247.755 160.699 246.304 153.804C244.854 146.914 243.046 130.587 229.281 120.797C215.516 111.002 206.46 95.4014 216.241 72.911C221.742 60.2598 224.148 53.4637 225.203 49.9364L219.5 74.3638C219.5 74.3638 215.878 99.391 226.022 108.097C226.05 108.119 226.072 108.141 226.099 108.163C236.227 116.879 249.563 132.766 249.563 132.766L249.525 132.067L246.667 80.5325L247.294 81.9083L251.81 91.8245L256.086 101.207C256.086 101.207 276.368 75.0902 300.277 66.3846C324.18 57.679 339.033 27.2093 339.033 27.2093L359.321 11.2454L342.655 31.1989C342.655 31.1989 337.583 54.7734 308.97 71.4638C280.352 88.1486 261.883 112.813 260.795 128.05C259.707 143.288 258.619 156.709 258.619 156.709C258.619 156.709 312.229 154.893 324.18 131.313C336.137 107.739 345.919 106.649 345.919 106.649L339.033 126.961L331.428 144.372C331.428 144.372 362.58 145.098 378.878 163.599C395.182 182.1 435.746 187.542 435.746 187.542L412.931 193.705C412.931 193.705 391.192 186.453 370.547 173.031C349.903 159.609 352.073 147.641 326.356 161.062Z" fill="#3F3D56"/>
<path opacity="0.1" d="M337.907 111.567C335.615 121.726 332.917 131.537 329.126 139.016C317.174 162.596 263.564 164.412 263.564 164.412C263.564 164.412 263.817 161.297 264.202 156.383C277.813 155.261 315.02 150.467 324.73 131.312C325.62 129.562 326.444 127.68 327.225 125.699L337.907 111.567Z" fill="black"/>
<path opacity="0.1" d="M254.509 140.469C254.509 140.469 241.106 124.505 230.968 115.799C228.742 113.895 227.182 111.199 226.099 108.161C226.011 107.919 225.929 107.671 225.846 107.424C226.083 107.655 226.319 107.88 226.572 108.095C235.446 115.717 246.827 128.902 249.525 132.066C249.904 132.517 250.113 132.765 250.113 132.765L247.294 81.9067L251.81 91.823L254.509 140.469Z" fill="black"/>
<path opacity="0.1" d="M262.267 94.6668C262.188 103.598 261.03 108.91 261.03 108.91C261.03 108.91 281.306 82.8033 305.207 74.0919C306.619 73.197 308.052 72.3159 309.519 71.4606C338.135 54.7744 343.206 31.196 343.206 31.196L359.868 11.2451L339.584 27.2058C339.584 27.2058 324.733 57.6763 300.826 66.3822C284.53 72.3165 269.919 86.3387 262.267 94.6668Z" fill="black"/>
<path opacity="0.1" d="M230.965 181.096V189.076C230.965 189.076 252.699 168.4 251.25 161.507C250.142 156.237 248.815 145.452 242.099 136.288C245.126 143.213 246.048 149.968 246.854 153.803C247.893 158.746 237.012 170.775 230.771 177.187C230.99 178.477 231.055 179.79 230.965 181.096Z" fill="black"/>
<path opacity="0.1" d="M201.812 126.33C201.984 126.698 202.162 127.059 202.35 127.409C207.904 137.74 216.279 148.721 222.544 158.808C217.48 148.819 208.668 137.396 201.812 126.33Z" fill="black"/>
<path opacity="0.1" d="M322.921 199.146C311.005 191.703 300.821 187.686 292.501 185.651C283.773 188.941 276.59 191.394 272.976 192.598C279.458 190.918 298.238 188.686 327.317 206.85C350.133 221.102 373.933 220.54 388.618 218.099C392.679 215.031 396.082 211.176 398.626 206.764C398.626 206.764 359.506 221.999 322.921 199.146Z" fill="black"/>
<path opacity="0.1" d="M219.471 110.887C216.55 103.72 216.069 95.1911 219.425 85.1974C219.383 81.5756 219.591 77.9552 220.049 74.3623L225.753 49.9287C224.701 53.4523 222.295 60.2498 216.789 72.9113C209.819 88.9404 212.42 101.466 219.471 110.887Z" fill="black"/>
<path opacity="0.1" d="M379.429 163.597C368.124 150.768 349.68 146.487 339.434 145.068L336.373 152.076C336.373 152.076 367.524 152.802 383.825 171.302C392.864 181.561 409.364 187.802 422.272 191.329L436.298 187.539C436.298 187.539 395.729 182.097 379.429 163.597Z" fill="black"/>
<path opacity="0.1" d="M157.796 158.606C173.009 152.076 152 115.439 152 115.439L151.425 115.175C156.663 126.242 164.259 146.241 153.4 150.902C143.238 155.263 133.724 144.412 128.525 136.725C128.714 137.269 128.818 137.567 128.818 137.567C128.818 137.567 142.582 165.135 157.796 158.606Z" fill="black"/>
<path opacity="0.1" d="M207.421 182.184C207.421 182.184 212.005 168.033 203.393 159.297C205.505 166.823 203.025 174.48 203.025 174.48C197.42 161.852 178.164 156.39 169.729 154.562C170.056 158.767 170.111 161.508 170.111 161.508C170.111 161.508 200.176 165.86 207.421 182.184Z" fill="black"/>
<path opacity="0.1" d="M225.753 49.9289C226.569 47.1937 226.569 46.4312 226.569 46.4312L225.753 49.9289Z" fill="black"/>
<path opacity="0.1" d="M44.9238 195.312C44.9968 195.289 45.071 195.267 45.1436 195.243C60.357 190.164 73.3972 170.939 86.7995 164.41C100.202 157.88 108.171 149.174 126.282 158.606C126.282 158.606 123.114 145.618 116.973 137.084C119.007 141.539 120.651 146.162 121.886 150.902C103.775 141.47 95.8058 150.176 82.4035 156.706C69.0012 163.235 55.961 182.46 40.7475 187.539C25.5341 192.617 0.540527 182.46 0.540527 182.46C0.540527 182.46 17.2029 192.98 38.5742 194.794C41.0189 195.001 43.1049 195.184 44.9238 195.312Z" fill="black"/>
<path opacity="0.1" d="M111.071 122.695C111.071 122.695 110.478 122.706 109.401 122.722L106.131 115.001C106.489 114.996 106.675 114.99 106.675 114.99C106.675 114.99 104.159 81.5878 99.312 66.02C99.3725 66.0475 99.4219 66.0806 99.4769 66.1081C107.082 69.7345 111.071 122.695 111.071 122.695Z" fill="black"/>
<path opacity="0.1" d="M195.94 371.45C202.577 351.075 218.539 294.733 205.972 257.272C200.545 241.094 195.515 230.778 191.262 224.196C194.442 230.426 197.919 238.667 201.576 249.568C217.152 295.999 188.898 371.45 188.898 371.45H195.94Z" fill="black"/>
<path opacity="0.1" d="M189.31 198.508C184.939 196.584 180.261 195.453 175.495 195.168C173.204 190.375 172.841 187.91 175.808 188.031C176.633 188.179 177.462 188.355 178.287 188.559C184.111 193.401 189.31 198.508 189.31 198.508Z" fill="black"/>
<path opacity="0.1" d="M91.248 54.8804C91.6612 55.5771 92.1619 56.2181 92.7377 56.7874C92.3147 56.0974 91.815 55.4576 91.248 54.8804Z" fill="black"/>
<path opacity="0.1" d="M157.434 113.988C157.993 114.518 158.518 115.085 159.004 115.684C157.417 111.864 155.458 108.561 153.038 106.284C141.084 95.0389 121.524 95.7644 121.524 95.7644L146.054 107.024C150.258 108.594 154.121 110.958 157.434 113.988Z" fill="black"/>
<path opacity="0.1" d="M183.464 64.9312C184.943 67.0694 184.112 76.1439 182.763 85.4246C179.917 104.385 183.058 123.761 191.745 140.847C192.899 143.133 194.187 145.349 195.604 147.482C187.326 130.649 184.379 111.685 187.159 93.1286C188.508 83.848 189.339 74.7735 187.86 72.6353C184.6 67.9196 170.836 38.9001 169.749 31.2824C169.423 28.3271 169.347 25.3496 169.522 22.3815C166.708 14.3866 166.44 0 166.44 0C166.44 0 164.266 15.9608 165.353 23.5783C166.44 31.1959 180.204 60.2155 183.464 64.9312Z" fill="black"/>
<path opacity="0.1" d="M217.447 14.7834C217.302 14.0664 217.081 13.3668 216.789 12.6963C216.789 12.6963 217.067 13.4792 217.447 14.7834Z" fill="black"/>
<path opacity="0.1" d="M89.5074 51.3162C92.6998 51.7075 96.372 52.6884 99.173 54.9632C98.9903 54.3443 98.8309 53.7896 98.704 53.3234C95.4439 41.3528 78.0571 43.5293 78.0571 43.5293C85.9145 44.538 87.944 47.9036 89.5074 51.3162Z" fill="black"/>
<path d="M431.094 352.813C425.692 361.109 427.172 371.661 427.172 371.661C427.172 371.661 437.411 368.762 442.813 360.465C448.215 352.169 446.735 341.617 446.735 341.617C446.735 341.617 436.496 344.516 431.094 352.813Z" fill="#3F3D56"/>
<path d="M435.152 354.279C434.725 364.174 427.39 371.893 427.39 371.893C427.39 371.893 420.748 363.569 421.175 353.674C421.602 343.779 428.936 336.06 428.936 336.06C428.936 336.06 435.579 344.384 435.152 354.279Z" fill="#CBAC95"/>
<path d="M340.004 291.66C340.004 291.66 346.22 285.129 348.764 286.443C351.308 287.757 341.449 293.597 341.449 293.597L340.004 291.66Z" fill="#FFB9B9"/>
<path opacity="0.1" d="M340.004 291.66C340.004 291.66 346.22 285.129 348.764 286.443C351.308 287.757 341.449 293.597 341.449 293.597L340.004 291.66Z" fill="black"/>
<path d="M321.038 277.407C321.038 277.407 318.753 281.508 319.351 285.93C319.949 290.351 325.417 304.539 327.276 304.287C329.135 304.035 342.906 293.873 342.906 293.873L340.28 290.201L330.22 296.305C330.22 296.305 328.687 274.474 321.038 277.407Z" fill="#D0CDE1"/>
<path d="M358.339 287.391L342.657 296.018C342.566 296.079 342.463 296.118 342.355 296.135C342.247 296.151 342.137 296.143 342.032 296.112C341.928 296.082 341.831 296.028 341.749 295.956C341.667 295.883 341.602 295.794 341.559 295.694L337.717 287.652C337.644 287.423 337.656 287.175 337.75 286.954C337.845 286.732 338.015 286.552 338.231 286.446L351.251 279.726C351.412 279.629 351.602 279.595 351.786 279.63C351.97 279.665 352.134 279.767 352.248 279.916L358.751 286.052C358.815 286.167 358.856 286.293 358.869 286.423C358.883 286.553 358.871 286.685 358.832 286.81C358.794 286.936 358.73 287.052 358.645 287.152C358.561 287.251 358.457 287.333 358.339 287.391Z" fill="#2F2E41"/>
<path d="M357.293 286.203L342.591 294.619L338.678 287.557L351.29 280.688L357.293 286.203Z" fill="#CBAC95"/>
<path d="M344.957 283.771C345.034 283.679 345.033 283.552 344.954 283.486C344.876 283.421 344.751 283.442 344.674 283.534C344.597 283.626 344.599 283.754 344.677 283.819C344.755 283.884 344.881 283.863 344.957 283.771Z" fill="#F2F2F2"/>
<path d="M350.368 290.956C350.419 290.895 350.418 290.81 350.366 290.767C350.314 290.723 350.231 290.738 350.18 290.799C350.129 290.86 350.13 290.944 350.182 290.988C350.234 291.031 350.317 291.017 350.368 290.956Z" fill="#F2F2F2"/>
<path opacity="0.1" d="M321.038 277.407C321.038 277.407 318.753 281.508 319.351 285.93C319.949 290.351 325.417 304.539 327.276 304.287C329.135 304.035 342.906 293.873 342.906 293.873L340.28 290.201L330.22 296.305C330.22 296.305 328.687 274.474 321.038 277.407Z" fill="black"/>
<path d="M335.801 292.908C335.801 292.908 342.836 287.272 345.181 288.916C347.526 290.56 336.974 295.021 336.974 295.021L335.801 292.908Z" fill="#FFB9B9"/>
<path d="M326.421 270.364C330.177 270.364 333.221 267.315 333.221 263.554C333.221 259.793 330.177 256.744 326.421 256.744C322.665 256.744 319.621 259.793 319.621 263.554C319.621 267.315 322.665 270.364 326.421 270.364Z" fill="#FFB9B9"/>
<path d="M349.871 310.99C349.871 310.99 357.14 311.93 356.906 316.391C356.671 320.853 351.278 339.405 351.278 339.405L350.809 346.685C350.809 346.685 351.278 358.896 349.871 358.661C348.464 358.427 345.181 349.973 345.181 349.973C345.181 349.973 341.194 347.389 343.07 345.041C344.946 342.693 346.353 342.928 345.884 340.344C345.415 337.761 345.65 326.959 347.057 323.671C348.464 320.384 349.284 318.57 349.284 318.57L344.712 318.27L349.871 310.99Z" fill="#FFB9B9"/>
<path opacity="0.1" d="M349.871 310.99C349.871 310.99 357.14 311.93 356.906 316.391C356.671 320.853 351.278 339.405 351.278 339.405L350.809 346.685C350.809 346.685 351.278 358.896 349.871 358.661C348.464 358.427 345.181 349.973 345.181 349.973C345.181 349.973 341.194 347.389 343.07 345.041C344.946 342.693 346.353 342.928 345.884 340.344C345.415 337.761 345.65 326.959 347.057 323.671C348.464 320.384 349.284 318.57 349.284 318.57L344.712 318.27L349.871 310.99Z" fill="black"/>
<path d="M350.34 312.164C350.34 312.164 357.375 313.808 358.078 318.505C358.782 323.201 362.299 337.056 362.299 337.056L366.051 345.745C366.051 345.745 371.914 356.313 369.334 356.078C366.755 355.843 363.237 350.677 362.065 350.677C360.892 350.677 357.375 349.268 357.609 348.328C357.844 347.389 359.485 344.571 359.485 344.571L353.812 334.674C352.717 332.764 351.889 330.712 351.351 328.575C350.768 326.257 350.105 323.418 350.105 322.497C350.105 320.853 345.416 320.148 345.416 320.148L350.34 312.164Z" fill="#FFB9B9"/>
<path d="M327.359 297.135L330.642 306.528C330.642 306.528 335.801 307.937 339.553 309.111C343.305 310.285 350.34 308.642 351.043 311.46C351.747 314.278 349.636 319.209 347.526 320.383C345.415 321.557 344.243 322.732 337.443 320.853C330.642 318.974 314.462 318.505 314.462 318.505C312.893 319.447 311.127 320.01 309.303 320.148C306.254 320.383 305.551 320.618 304.613 319.914C303.675 319.209 305.082 319.209 305.551 317.33C306.02 315.452 306.254 316.156 308.365 314.043C310.475 311.929 312.117 305.589 313.289 303.475C314.462 301.362 315.165 297.135 315.165 297.135H327.359Z" fill="#2F2E41"/>
<path d="M326.89 269.189C326.038 269.813 325.341 270.624 324.853 271.561C324.365 272.498 324.099 273.534 324.076 274.591C324.076 278.113 317.041 270.833 317.041 270.833C317.041 270.833 320.793 266.137 320.793 264.728C320.793 263.319 326.89 269.189 326.89 269.189Z" fill="#FFB9B9"/>
<path d="M317.979 267.781C317.979 267.781 322.2 269.425 323.138 271.773C324.076 274.121 327.594 279.053 327.594 279.053C327.594 279.053 332.518 284.219 330.877 289.855C329.235 295.491 327.828 296.9 327.828 297.839C327.828 298.779 325.483 300.423 323.607 300.188C321.731 299.953 314.696 299.014 314.227 298.074C313.758 297.135 310.944 283.749 312.82 278.818C314.342 275.049 316.064 271.365 317.979 267.781Z" fill="#D0CDE1"/>
<path d="M328.393 263.864C329.915 264.225 331.409 263.254 332.656 262.292C333.364 261.745 334.143 260.966 333.926 260.086C333.734 259.305 332.815 258.863 332.682 258.07C332.589 257.518 332.911 256.982 332.937 256.423C332.914 255.998 332.774 255.586 332.533 255.235C332.293 254.883 331.96 254.604 331.572 254.429C330.83 254.029 329.989 253.863 329.228 253.505C328.064 252.958 327.098 251.973 325.855 251.658C324.158 251.227 322.43 252.145 320.686 252.263C319.63 252.335 318.56 252.112 317.516 252.286C316.52 252.487 315.62 253.019 314.963 253.795C314.305 254.571 313.927 255.546 313.891 256.563C313.877 257.311 314.026 258.145 313.581 258.737C313.405 258.942 313.205 259.123 312.984 259.278C311.433 260.535 310.728 262.634 310.648 264.657C310.609 265.652 310.817 266.835 311.699 267.258C312.171 267.42 312.67 267.489 313.169 267.463C313.419 267.452 313.669 267.503 313.895 267.611C314.121 267.719 314.317 267.881 314.467 268.083C314.868 268.793 314.267 269.841 314.792 270.46C315.187 270.925 315.957 270.771 316.418 270.375C316.879 269.978 317.166 269.408 317.603 268.984C318.453 268.16 319.714 268.01 320.879 267.885C321.224 267.882 321.56 267.772 321.84 267.569C322.051 267.347 322.189 267.064 322.234 266.76C322.387 266.061 322.389 265.336 322.24 264.636C322.166 264.419 322.156 264.185 322.213 263.963C322.29 263.805 322.409 263.672 322.557 263.577C323.279 263.034 324.544 262.243 325.482 262.393C326.524 262.559 327.343 263.614 328.393 263.864Z" fill="#2F2E41"/>
<path d="M318.917 276.235C318.917 276.235 316.103 279.992 316.103 284.454C316.103 288.916 319.621 303.71 321.497 303.71C323.373 303.71 338.381 295.491 338.381 295.491L336.27 291.499L325.483 296.196C325.483 296.196 326.89 274.356 318.917 276.235Z" fill="#D0CDE1"/>
<path d="M350.757 318.622H296.906V329.078H350.757V318.622Z" fill="#CBAC95"/>
<path d="M323.832 329.628C322.666 329.626 321.549 329.162 320.725 328.337C319.901 327.511 319.437 326.392 319.436 325.225V201.41C319.436 200.577 319.671 199.762 320.116 199.058C320.56 198.354 321.194 197.791 321.944 197.434C322.695 197.076 323.532 196.939 324.357 197.039C325.182 197.138 325.963 197.47 326.607 197.996L325.913 198.849C325.429 198.455 324.844 198.206 324.225 198.132C323.606 198.057 322.979 198.16 322.416 198.428C321.853 198.696 321.377 199.118 321.044 199.646C320.711 200.174 320.535 200.785 320.535 201.41V325.225C320.536 326.101 320.883 326.94 321.502 327.559C322.12 328.178 322.958 328.526 323.832 328.527V329.628Z" fill="#3F3D56"/>
<path d="M315.522 260.478C315.759 260.287 315.489 259.557 314.918 258.846C314.348 258.135 313.694 257.713 313.458 257.903C313.221 258.094 313.491 258.824 314.062 259.535C314.632 260.246 315.286 260.668 315.522 260.478Z" fill="#CBAC95"/>
<path d="M268.441 352.813C263.039 361.109 264.519 371.661 264.519 371.661C264.519 371.661 274.758 368.762 280.16 360.465C285.562 352.169 284.082 341.617 284.082 341.617C284.082 341.617 273.843 344.516 268.441 352.813Z" fill="#3F3D56"/>
<path d="M272.499 354.279C272.072 364.174 264.737 371.893 264.737 371.893C264.737 371.893 258.094 363.569 258.521 353.674C258.948 343.779 266.283 336.06 266.283 336.06C266.283 336.06 272.926 344.384 272.499 354.279Z" fill="#CBAC95"/>
<path d="M179.537 355.951C182.12 365.512 190.966 371.433 190.966 371.433C190.966 371.433 195.625 361.853 193.042 352.292C190.46 342.732 181.613 336.811 181.613 336.811C181.613 336.811 176.955 346.39 179.537 355.951Z" fill="#3F3D56"/>
<path d="M183.332 353.896C190.419 360.805 191.284 371.425 191.284 371.425C191.284 371.425 180.66 370.844 173.573 363.935C166.486 357.027 165.621 346.407 165.621 346.407C165.621 346.407 176.245 346.988 183.332 353.896Z" fill="#CBAC95"/>
<path d="M159.843 94.6758C159.227 104.561 151.746 112.138 151.746 112.138C151.746 112.138 145.264 103.688 145.88 93.803C146.496 83.9179 153.977 76.3408 153.977 76.3408C153.977 76.3408 160.46 84.7907 159.843 94.6758Z" fill="#CBAC95"/>
<path d="M81.8596 32.184C90.2259 37.4661 93.2774 47.674 93.2774 47.674C93.2774 47.674 82.7645 49.3178 74.3983 44.0357C66.032 38.7535 62.9805 28.5456 62.9805 28.5456C62.9805 28.5456 73.4933 26.9018 81.8596 32.184Z" fill="#CBAC95"/>
<path d="M63.1765 152.698C71.5427 157.98 74.5943 168.188 74.5943 168.188C74.5943 168.188 64.0814 169.831 55.7151 164.549C47.3489 159.267 44.2974 149.059 44.2974 149.059C44.2974 149.059 54.8102 147.416 63.1765 152.698Z" fill="#CBAC95"/>
<path d="M233.259 49.8019C230.736 59.3786 221.927 65.3549 221.927 65.3549C221.927 65.3549 217.208 55.8044 219.731 46.2278C222.255 36.6511 231.064 30.6748 231.064 30.6748C231.064 30.6748 235.782 40.2253 233.259 49.8019Z" fill="#CBAC95"/>
<path d="M312.847 57.2693C309.881 66.7179 300.804 72.2772 300.804 72.2772C300.804 72.2772 296.535 62.5171 299.5 53.0684C302.465 43.6198 311.543 38.0605 311.543 38.0605C311.543 38.0605 315.812 47.8206 312.847 57.2693Z" fill="#CBAC95"/>
<path d="M398.869 162.428C393.497 170.745 383.269 173.681 383.269 173.681C383.269 173.681 381.75 163.135 387.122 154.819C392.493 146.503 402.721 143.566 402.721 143.566C402.721 143.566 404.24 154.112 398.869 162.428Z" fill="#CBAC95"/>
</g>
<defs>
<clipPath id="clip0">
<rect width="470" height="366" fill="white"/>
</clipPath>
</defs>
</svg>
