<svg width="469" height="456" viewBox="0 0 469 456" fill="none" xmlns="http://www.w3.org/2000/svg">
<g clip-path="url(#clip0)">
<g opacity="0.5">
<path opacity="0.5" d="M70.0534 143.46C108.468 143.46 139.608 112.182 139.608 73.5985C139.608 35.0152 108.468 3.7373 70.0534 3.7373C31.6392 3.7373 0.498291 35.0152 0.498291 73.5985C0.498291 112.182 31.6392 143.46 70.0534 143.46Z" fill="url(#paint0_linear)"/>
</g>
<path d="M70.0531 141.603C107.655 141.603 138.138 110.986 138.138 73.2188C138.138 35.4512 107.655 4.83447 70.0531 4.83447C32.451 4.83447 1.96851 35.4512 1.96851 73.2188C1.96851 110.986 32.451 141.603 70.0531 141.603Z" fill="#F5F5F5"/>
<path d="M70.2453 141.796C83.5499 141.818 96.5667 137.906 107.673 130.547C105.164 116.779 95.6149 115.989 95.6149 115.989H42.973C42.973 115.989 33.9703 116.731 31.1494 129.402C42.5949 137.488 56.2519 141.818 70.2453 141.796Z" fill="#1D454D"/>
<path d="M69.531 102.028C86.2007 102.028 99.7142 88.4551 99.7142 71.712C99.7142 54.9689 86.2007 41.396 69.531 41.396C52.8614 41.396 39.3479 54.9689 39.3479 71.712C39.3479 88.4551 52.8614 102.028 69.531 102.028Z" fill="#333333"/>
<path opacity="0.1" d="M58.9258 99.2065H79.9861V116.128C79.9861 118.932 78.877 121.622 76.9028 123.604C74.9286 125.587 72.2509 126.701 69.459 126.701C66.667 126.701 63.9894 125.587 62.0151 123.604C60.0409 121.622 58.9318 118.932 58.9318 116.128V99.2065H58.9258Z" fill="black"/>
<path d="M60.9365 98.4229H77.9756C78.5089 98.4229 79.0203 98.6356 79.3974 99.0143C79.7744 99.3931 79.9863 99.9067 79.9863 100.442V115.344C79.9863 118.148 78.8771 120.838 76.9029 122.821C74.9287 124.804 72.2511 125.918 69.4591 125.918C66.6671 125.918 63.9895 124.804 62.0152 122.821C60.041 120.838 58.9319 118.148 58.9319 115.344V100.442C58.9319 99.9078 59.1429 99.395 59.5187 99.0165C59.8944 98.6379 60.4043 98.4244 60.9365 98.4229Z" fill="#BE7C5E"/>
<path opacity="0.1" d="M58.9678 107.194C65.755 109.742 73.2265 109.763 80.0281 107.254V104.656H58.9678V107.194Z" fill="black"/>
<path d="M69.531 108.611C86.2007 108.611 99.7142 95.0381 99.7142 78.295C99.7142 61.5519 86.2007 47.979 69.531 47.979C52.8614 47.979 39.3479 61.5519 39.3479 78.295C39.3479 95.0381 52.8614 108.611 69.531 108.611Z" fill="#BE7C5E"/>
<path d="M51.2435 65.7922C51.5977 64.4841 52.0418 63.0433 53.2121 62.3621C54.1364 61.8196 55.2828 61.904 56.3511 61.9582C64.6936 62.4164 72.9641 60.5054 81.0786 58.5101C85.718 57.3708 90.6815 55.9843 93.6824 52.2287C96.6833 48.4731 92.7701 36.6698 88.2027 35.2773C85.2018 34.3549 81.7208 36.073 78.8759 34.7227C77.6095 34.1198 76.6792 32.9926 75.5869 32.1124C73.3482 30.304 70.4734 29.5745 67.6885 28.8873C64.4355 28.0795 60.9185 27.2898 57.8275 28.5859C55.4268 29.5866 53.6743 31.7025 51.3996 32.9564C47.0723 35.3677 41.7967 34.2464 36.8392 34.2344C35.1647 34.2344 33.1661 34.572 32.4999 36.1152C32.0497 37.1641 32.4098 38.3577 32.4579 39.497C32.6019 43.114 29.631 45.9292 27.1403 48.5394C24.6495 51.1496 22.2968 54.8751 23.8693 58.1183C24.4694 59.354 25.5678 60.2884 26.192 61.5122C27.2663 63.6341 26.7261 66.1961 27.1162 68.5411C27.5068 70.3204 28.1689 72.0285 29.0788 73.6048C30.9274 77.2217 40.2122 96.6929 44.4795 91.7438C46.5441 89.3325 46.8802 82.3638 47.7145 79.2291C48.8668 74.724 50.0432 70.2451 51.2435 65.7922Z" fill="#333333"/>
<path d="M48.0566 82.4783C49.6079 82.4783 50.8655 80.1114 50.8655 77.1916C50.8655 74.2718 49.6079 71.9048 48.0566 71.9048C46.5054 71.9048 45.2478 74.2718 45.2478 77.1916C45.2478 80.1114 46.5054 82.4783 48.0566 82.4783Z" fill="#BE7C5E"/>
<g opacity="0.5">
<path opacity="0.5" d="M231.118 295.51C269.532 295.51 300.673 264.232 300.673 225.649C300.673 187.066 269.532 155.788 231.118 155.788C192.704 155.788 161.563 187.066 161.563 225.649C161.563 264.232 192.704 295.51 231.118 295.51Z" fill="url(#paint1_linear)"/>
</g>
<path d="M231.25 293.588C268.852 293.588 299.335 262.971 299.335 225.203C299.335 187.436 268.852 156.819 231.25 156.819C193.648 156.819 163.165 187.436 163.165 225.203C163.165 262.971 193.648 293.588 231.25 293.588Z" fill="#F5F5F5"/>
<path d="M231.31 293.859C244.607 293.876 257.614 289.964 268.713 282.61C266.205 268.841 256.656 268.052 256.656 268.052H204.032C204.032 268.052 195.029 268.793 192.208 281.465C203.655 289.552 217.315 293.882 231.31 293.859Z" fill="#1D454D"/>
<path d="M230.59 256.773C248.741 256.773 263.456 241.993 263.456 223.762C263.456 205.531 248.741 190.751 230.59 190.751C212.438 190.751 197.724 205.531 197.724 223.762C197.724 241.993 212.438 256.773 230.59 256.773Z" fill="#F55F44"/>
<path opacity="0.1" d="M219.985 251.257H241.045V268.178C241.045 270.982 239.936 273.672 237.962 275.655C235.987 277.638 233.31 278.752 230.518 278.752C227.726 278.752 225.048 277.638 223.074 275.655C221.1 273.672 219.991 270.982 219.991 268.178V251.257H219.985Z" fill="black"/>
<path d="M221.995 250.473H239.034C239.299 250.473 239.56 250.525 239.804 250.627C240.048 250.728 240.269 250.877 240.456 251.065C240.643 251.252 240.791 251.475 240.892 251.72C240.993 251.965 241.045 252.227 241.045 252.493V267.394C241.045 268.783 240.773 270.158 240.244 271.441C239.715 272.724 238.939 273.889 237.962 274.871C236.984 275.853 235.824 276.632 234.546 277.163C233.269 277.694 231.9 277.968 230.518 277.968C229.135 277.968 227.767 277.694 226.489 277.163C225.212 276.632 224.052 275.853 223.074 274.871C222.097 273.889 221.321 272.724 220.792 271.441C220.263 270.158 219.991 268.783 219.991 267.394V252.493C219.991 251.957 220.203 251.443 220.58 251.065C220.957 250.686 221.468 250.473 222.001 250.473H221.995Z" fill="#FDA57D"/>
<path opacity="0.1" d="M220.027 259.244C226.814 261.792 234.285 261.814 241.087 259.305V256.707H220.027V259.244Z" fill="black"/>
<path d="M230.59 260.661C247.26 260.661 260.773 247.088 260.773 230.345C260.773 213.602 247.26 200.029 230.59 200.029C213.92 200.029 200.407 213.602 200.407 230.345C200.407 247.088 213.92 260.661 230.59 260.661Z" fill="#FDA57D"/>
<path d="M230.548 202.386C237.257 202.386 242.695 196.924 242.695 190.185C242.695 183.447 237.257 177.984 230.548 177.984C223.839 177.984 218.4 183.447 218.4 190.185C218.4 196.924 223.839 202.386 230.548 202.386Z" fill="#F55F44"/>
<path d="M230.548 186.182C234.953 186.182 238.524 182.595 238.524 178.171C238.524 173.746 234.953 170.159 230.548 170.159C226.142 170.159 222.571 173.746 222.571 178.171C222.571 182.595 226.142 186.182 230.548 186.182Z" fill="#F55F44"/>
<path d="M225.278 196.876C222.428 195.592 220.18 193.255 219.001 190.349C217.822 187.444 217.802 184.194 218.946 181.275C218.862 181.444 218.778 181.619 218.7 181.793C218.047 183.255 217.687 184.833 217.641 186.434C217.595 188.036 217.863 189.632 218.431 191.129C218.999 192.627 219.854 193.998 220.949 195.163C222.044 196.329 223.357 197.266 224.813 197.922C226.269 198.578 227.839 198.939 229.434 198.986C231.029 199.032 232.617 198.762 234.108 198.192C235.599 197.622 236.964 196.763 238.124 195.663C239.285 194.563 240.218 193.244 240.871 191.782C240.949 191.607 241.021 191.432 241.093 191.252C239.683 194.052 237.253 196.199 234.307 197.246C231.362 198.294 228.129 198.161 225.278 196.876Z" fill="#F55F44"/>
<path opacity="0.1" d="M209.097 202.772C209.097 202.772 221.815 228.693 257.712 213.623L249.357 200.463L234.551 195.122L209.097 202.772Z" fill="black"/>
<path d="M209.097 202.386C209.097 202.386 221.815 228.308 257.712 213.237L249.357 200.077L234.551 194.736L209.097 202.386Z" fill="#F55F44"/>
<path d="M218.898 192.946C226.725 192.327 234.587 192.327 242.414 192.946C242.414 192.946 225.044 194.567 218.898 192.946Z" fill="#333333"/>
<path d="M232.372 169.671C231.769 169.649 231.165 169.695 230.572 169.81H231.034C232.998 169.873 234.87 170.663 236.29 172.028C237.71 173.392 238.578 175.236 238.727 177.205C238.875 179.173 238.295 181.127 237.097 182.692C235.898 184.257 234.167 185.321 232.234 185.682C234.348 185.701 236.383 184.876 237.891 183.388C239.4 181.901 240.258 179.872 240.277 177.749C240.296 175.626 239.474 173.582 237.993 172.067C236.512 170.552 234.492 169.69 232.378 169.671H232.372Z" fill="#F55F44"/>
<path d="M200.401 235.601C201.952 235.601 203.209 233.234 203.209 230.315C203.209 227.395 201.952 225.028 200.401 225.028C198.849 225.028 197.592 227.395 197.592 230.315C197.592 233.234 198.849 235.601 200.401 235.601Z" fill="#FDA57D"/>
<path d="M260.773 235.601C262.324 235.601 263.582 233.234 263.582 230.315C263.582 227.395 262.324 225.028 260.773 225.028C259.222 225.028 257.964 227.395 257.964 230.315C257.964 233.234 259.222 235.601 260.773 235.601Z" fill="#FDA57D"/>
<path d="M207.195 203.152L213.083 200.102L214.409 204.99L210.802 207.456L207.195 203.152Z" fill="#F55F44"/>
<g opacity="0.5">
<path opacity="0.5" d="M231.052 140.03C269.466 140.03 300.607 108.752 300.607 70.1689C300.607 31.5856 269.466 0.307617 231.052 0.307617C192.638 0.307617 161.497 31.5856 161.497 70.1689C161.497 108.752 192.638 140.03 231.052 140.03Z" fill="url(#paint2_linear)"/>
</g>
<path d="M231.052 138.173C268.654 138.173 299.137 107.557 299.137 69.7891C299.137 32.0215 268.654 1.40479 231.052 1.40479C193.45 1.40479 162.967 32.0215 162.967 69.7891C162.967 107.557 193.45 138.173 231.052 138.173Z" fill="#F5F5F5"/>
<path d="M204.494 70.3979C204.494 70.3979 196.776 108.593 192.562 106.477C192.562 106.477 233.195 141.73 269.073 106.477C269.073 106.477 262.753 79.5609 253.631 70.3979H204.494Z" fill="#333333"/>
<path d="M231.244 138.378C244.549 138.4 257.565 134.488 268.671 127.129C266.163 113.361 256.614 112.571 256.614 112.571H203.966C203.966 112.571 194.963 113.313 192.142 125.984C203.589 134.072 217.249 138.401 231.244 138.378Z" fill="#1D454D"/>
<path d="M230.524 98.5978C247.193 98.5978 260.707 85.0249 260.707 68.2818C260.707 51.5388 247.193 37.9658 230.524 37.9658C213.854 37.9658 200.341 51.5388 200.341 68.2818C200.341 85.0249 213.854 98.5978 230.524 98.5978Z" fill="#333333"/>
<path opacity="0.1" d="M219.919 95.7769H240.979V112.698C240.979 115.499 239.872 118.186 237.902 120.168C235.932 122.151 233.259 123.267 230.47 123.272C227.678 123.272 225 122.158 223.026 120.175C221.052 118.192 219.943 115.502 219.943 112.698V95.7769H219.919Z" fill="black"/>
<path d="M221.929 94.9932H238.968C239.502 94.9932 240.013 95.2059 240.39 95.5846C240.767 95.9634 240.979 96.477 240.979 97.0126V111.914C240.979 114.716 239.872 117.402 237.902 119.385C235.932 121.367 233.259 122.483 230.47 122.488C227.678 122.488 225 121.374 223.026 119.391C221.052 117.408 219.943 114.719 219.943 111.914V97.0066C219.944 96.4762 220.153 95.9677 220.525 95.591C220.897 95.2142 221.401 94.9995 221.929 94.9932Z" fill="#BE7C5E"/>
<path opacity="0.1" d="M219.961 103.764C226.748 106.312 234.219 106.333 241.021 103.824V101.226H219.961V103.764Z" fill="black"/>
<path d="M230.524 105.174C247.193 105.174 260.707 91.6016 260.707 74.8585C260.707 58.1154 247.193 44.5425 230.524 44.5425C213.854 44.5425 200.341 58.1154 200.341 74.8585C200.341 91.6016 213.854 105.174 230.524 105.174Z" fill="#BE7C5E"/>
<path d="M201.673 63.3445H259.23C259.23 63.3445 254.315 40.0032 232.558 41.4922C210.802 42.9811 201.673 63.3445 201.673 63.3445Z" fill="#333333"/>
<path d="M200.965 78.8553C202.516 78.8553 203.774 76.4883 203.774 73.5685C203.774 70.6487 202.516 68.2817 200.965 68.2817C199.414 68.2817 198.156 70.6487 198.156 73.5685C198.156 76.4883 199.414 78.8553 200.965 78.8553Z" fill="#BE7C5E"/>
<path d="M259.927 78.8553C261.478 78.8553 262.735 76.4883 262.735 73.5685C262.735 70.6487 261.478 68.2817 259.927 68.2817C258.375 68.2817 257.118 70.6487 257.118 73.5685C257.118 76.4883 258.375 78.8553 259.927 78.8553Z" fill="#BE7C5E"/>
<path opacity="0.1" d="M201.673 64.1282H259.23C259.23 64.1282 254.315 40.7869 232.558 42.2758C210.802 43.7648 201.673 64.1282 201.673 64.1282Z" fill="black"/>
<g opacity="0.5">
<path opacity="0.5" d="M396.858 139.722C435.272 139.722 466.413 108.445 466.413 69.8612C466.413 31.2779 435.272 0 396.858 0C358.444 0 327.303 31.2779 327.303 69.8612C327.303 108.445 358.444 139.722 396.858 139.722Z" fill="url(#paint3_linear)"/>
</g>
<path d="M396.99 137.794C434.592 137.794 465.075 107.177 465.075 69.4092C465.075 31.6416 434.592 1.0249 396.99 1.0249C359.388 1.0249 328.906 31.6416 328.906 69.4092C328.906 107.177 359.388 137.794 396.99 137.794Z" fill="#F5F5F5"/>
<path d="M397.05 138.071C410.355 138.093 423.372 134.181 434.478 126.822C431.963 113.048 422.42 112.258 422.42 112.258H369.778C369.778 112.258 360.775 112.999 357.954 125.671C369.399 133.759 383.056 138.091 397.05 138.071Z" fill="#1D454D"/>
<path d="M396.336 100.979C414.487 100.979 429.202 86.1994 429.202 67.9682C429.202 49.7369 414.487 34.9575 396.336 34.9575C378.185 34.9575 363.47 49.7369 363.47 67.9682C363.47 86.1994 378.185 100.979 396.336 100.979Z" fill="#72351C"/>
<path opacity="0.1" d="M385.725 95.4634H406.785V112.385C406.788 113.775 406.517 115.152 405.989 116.437C405.461 117.721 404.686 118.889 403.708 119.873C402.731 120.857 401.569 121.637 400.291 122.17C399.012 122.702 397.642 122.976 396.258 122.976C393.466 122.976 390.788 121.862 388.814 119.879C386.84 117.896 385.731 115.207 385.731 112.403V95.4634H385.725Z" fill="black"/>
<path d="M387.718 94.6797H404.757C405.29 94.6797 405.801 94.8925 406.178 95.2712C406.555 95.6499 406.767 96.1636 406.767 96.6992V111.601C406.767 114.405 405.658 117.095 403.684 119.078C401.71 121.06 399.032 122.174 396.24 122.174C393.448 122.174 390.77 121.06 388.796 119.078C386.822 117.095 385.713 114.405 385.713 111.601V96.6992C385.713 96.1636 385.925 95.6499 386.302 95.2712C386.679 94.8925 387.19 94.6797 387.724 94.6797H387.718Z" fill="#FDA57D"/>
<path opacity="0.1" d="M385.749 103.45C392.536 105.998 400.008 106.02 406.809 103.511V100.913H385.749V103.45Z" fill="black"/>
<path d="M396.336 104.867C413.006 104.867 426.519 91.2944 426.519 74.5514C426.519 57.8083 413.006 44.2354 396.336 44.2354C379.666 44.2354 366.153 57.8083 366.153 74.5514C366.153 91.2944 379.666 104.867 396.336 104.867Z" fill="#FDA57D"/>
<path opacity="0.1" d="M374.837 46.978C374.837 46.978 387.555 72.8994 423.452 57.8288L415.098 44.6691L400.291 39.3281L374.837 46.978Z" fill="black"/>
<path d="M374.837 46.5981C374.837 46.5981 387.555 72.5195 423.452 57.4489L415.098 44.2893L400.291 38.9482L374.837 46.5981Z" fill="#72351C"/>
<path d="M374.723 44.8439C375.581 42.1776 377.063 39.7568 379.045 37.7849C384.981 31.8893 394.715 30.6474 399.709 23.9199C399.98 24.396 400.149 24.924 400.205 25.4698C400.26 26.0155 400.201 26.5669 400.032 27.0884C399.862 27.6098 399.586 28.0898 399.22 28.4972C398.854 28.9046 398.407 29.2305 397.908 29.4538C402.71 29.4237 408.238 29.0017 410.938 25.0472C411.607 26.6099 411.82 28.331 411.553 30.0106C411.287 31.6902 410.551 33.2593 409.432 34.5357C413.669 34.7286 418.195 37.6161 418.471 41.872C418.651 44.7053 416.886 47.3878 414.563 49.0155C412.241 50.6431 409.444 51.3725 406.683 51.9753C398.629 53.7838 369.466 61.2649 374.723 44.8439Z" fill="#72351C"/>
<path d="M426.519 74.8164H425.721L410.152 88.7477C395.148 81.6946 384.14 88.7477 384.14 88.7477L367.815 75.4011L366.171 75.6061C366.394 83.5631 369.723 91.1129 375.441 96.6252C381.158 102.138 388.805 105.17 396.729 105.068C404.654 104.966 412.221 101.737 417.795 96.0795C423.37 90.4217 426.506 82.7886 426.525 74.8285L426.519 74.8164ZM396.294 94.0766C390.424 94.0766 385.665 92.871 385.665 91.4061C385.665 89.9413 390.424 88.7356 396.294 88.7356C402.164 88.7356 406.923 89.9413 406.923 91.4061C406.923 92.871 402.164 94.0766 396.288 94.0766H396.294Z" fill="#72351C"/>
<path d="M366.141 79.8079C367.692 79.8079 368.95 77.441 368.95 74.5212C368.95 71.6013 367.692 69.2344 366.141 69.2344C364.59 69.2344 363.332 71.6013 363.332 74.5212C363.332 77.441 364.59 79.8079 366.141 79.8079Z" fill="#FDA57D"/>
<path d="M426.513 79.8079C428.064 79.8079 429.322 77.441 429.322 74.5212C429.322 71.6013 428.064 69.2344 426.513 69.2344C424.962 69.2344 423.704 71.6013 423.704 74.5212C423.704 77.441 424.962 79.8079 426.513 79.8079Z" fill="#FDA57D"/>
<g opacity="0.5">
<path opacity="0.5" d="M69.5551 290.935C107.969 290.935 139.11 259.657 139.11 221.074C139.11 182.49 107.969 151.212 69.5551 151.212C31.1409 151.212 0 182.49 0 221.074C0 259.657 31.1409 290.935 69.5551 290.935Z" fill="url(#paint4_linear)"/>
</g>
<path d="M69.6871 289.012C107.289 289.012 137.772 258.395 137.772 220.627C137.772 182.86 107.289 152.243 69.6871 152.243C32.0851 152.243 1.60254 182.86 1.60254 220.627C1.60254 258.395 32.0851 289.012 69.6871 289.012Z" fill="#F5F5F5"/>
<path d="M69.7472 289.283C83.0498 289.304 96.0644 285.392 107.169 278.034C104.66 264.266 95.1109 263.476 95.1109 263.476H42.4449C42.4449 263.476 33.4422 264.218 30.6213 276.889C42.0752 284.981 55.7436 289.311 69.7472 289.283Z" fill="#1D454D"/>
<path d="M69.0268 252.198C87.1782 252.198 101.893 237.418 101.893 219.187C101.893 200.956 87.1782 186.176 69.0268 186.176C50.8755 186.176 36.1609 200.956 36.1609 219.187C36.1609 237.418 50.8755 252.198 69.0268 252.198Z" fill="#333333"/>
<path opacity="0.1" d="M58.4216 246.682H79.482V263.603C79.482 266.407 78.3729 269.097 76.3987 271.08C74.4244 273.062 71.7468 274.176 68.9548 274.176C66.1628 274.176 63.4852 273.062 61.511 271.08C59.5367 269.097 58.4276 266.407 58.4276 263.603V246.682H58.4216Z" fill="black"/>
<path d="M60.4322 245.898H77.4714C78.0046 245.898 78.516 246.11 78.8931 246.489C79.2702 246.868 79.482 247.382 79.482 247.917V262.831C79.482 265.635 78.3729 268.325 76.3987 270.308C74.4244 272.29 71.7468 273.404 68.9548 273.404C67.5719 273.405 66.2023 273.132 64.9244 272.601C63.6465 272.07 62.4853 271.292 61.5071 270.31C60.5289 269.328 59.753 268.162 59.2235 266.879C58.6941 265.595 58.4216 264.22 58.4216 262.831V247.911C58.4216 247.375 58.6335 246.862 59.0105 246.483C59.3876 246.104 59.899 245.892 60.4322 245.892V245.898Z" fill="#FDB797"/>
<path opacity="0.1" d="M58.4636 254.669C65.2509 257.217 72.7224 257.238 79.524 254.729V252.113H58.4636V254.669Z" fill="black"/>
<path d="M69.0269 256.086C85.6966 256.086 99.21 242.513 99.21 225.77C99.21 209.027 85.6966 195.454 69.0269 195.454C52.3572 195.454 38.8438 209.027 38.8438 225.77C38.8438 242.513 52.3572 256.086 69.0269 256.086Z" fill="#FDB797"/>
<path opacity="0.1" d="M47.5344 198.19C47.5344 198.19 60.2523 224.112 96.1491 209.041L87.7946 195.882L72.9881 190.541L47.5344 198.19Z" fill="black"/>
<path d="M47.5344 197.81C47.5344 197.81 60.2523 223.732 96.1491 208.661L87.7946 195.502L72.9881 190.161L47.5344 197.81Z" fill="#333333"/>
<path d="M47.4203 196.05C48.2777 193.384 49.7596 190.963 51.7416 188.991C57.6774 183.096 67.4124 181.854 72.4059 175.126C72.6772 175.603 72.8461 176.131 72.9017 176.676C72.9573 177.222 72.8984 177.773 72.7287 178.295C72.5591 178.816 72.2824 179.296 71.9167 179.704C71.5509 180.111 71.1042 180.437 70.6053 180.66C75.4068 180.63 80.9345 180.208 83.6353 176.254C84.3037 177.816 84.517 179.538 84.2503 181.217C83.9836 182.897 83.248 184.466 82.1288 185.742C86.3661 185.935 90.8915 188.823 91.1675 193.079C91.3476 195.912 89.5831 198.594 87.2604 200.222C84.9377 201.85 82.1348 202.591 79.374 203.206C71.3195 205.002 42.1627 212.483 47.4203 196.05Z" fill="#333333"/>
<path d="M38.8318 231.026C40.3831 231.026 41.6406 228.659 41.6406 225.739C41.6406 222.82 40.3831 220.453 38.8318 220.453C37.2805 220.453 36.0229 222.82 36.0229 225.739C36.0229 228.659 37.2805 231.026 38.8318 231.026Z" fill="#FDB797"/>
<path d="M99.2041 231.026C100.755 231.026 102.013 228.659 102.013 225.739C102.013 222.82 100.755 220.453 99.2041 220.453C97.6528 220.453 96.3953 222.82 96.3953 225.739C96.3953 228.659 97.6528 231.026 99.2041 231.026Z" fill="#FDB797"/>
<g opacity="0.5">
<path opacity="0.5" d="M399.451 298.681C437.865 298.681 469.006 267.403 469.006 228.82C469.006 190.236 437.865 158.958 399.451 158.958C361.037 158.958 329.896 190.236 329.896 228.82C329.896 267.403 361.037 298.681 399.451 298.681Z" fill="url(#paint5_linear)"/>
</g>
<path d="M399.451 296.824C437.053 296.824 467.536 266.208 467.536 228.44C467.536 190.672 437.053 160.056 399.451 160.056C361.849 160.056 331.366 190.672 331.366 228.44C331.366 266.208 361.849 296.824 399.451 296.824Z" fill="#F5F5F5"/>
<path d="M399.643 297.03C412.948 297.052 425.964 293.139 437.07 285.781C434.561 272.012 425.013 271.223 425.013 271.223H372.365C372.365 271.223 363.362 271.964 360.541 284.635C371.988 292.723 385.647 297.052 399.643 297.03Z" fill="#1D454D"/>
<path opacity="0.1" d="M388.318 254.428H409.378V271.349C409.378 274.153 408.269 276.843 406.295 278.826C404.32 280.808 401.643 281.922 398.851 281.922C397.468 281.923 396.098 281.65 394.82 281.119C393.542 280.588 392.381 279.81 391.403 278.828C390.425 277.846 389.649 276.68 389.12 275.397C388.59 274.113 388.318 272.738 388.318 271.349V254.428Z" fill="black"/>
<path d="M390.328 253.644H407.367C407.901 253.644 408.412 253.857 408.789 254.236C409.166 254.614 409.378 255.128 409.378 255.663V270.565C409.378 273.37 408.269 276.059 406.295 278.042C404.32 280.025 401.643 281.139 398.851 281.139C397.468 281.14 396.098 280.867 394.82 280.336C393.542 279.805 392.381 279.026 391.403 278.044C390.425 277.062 389.649 275.896 389.12 274.613C388.59 273.33 388.318 271.954 388.318 270.565V255.663C388.318 255.128 388.529 254.614 388.907 254.236C389.284 253.857 389.795 253.644 390.328 253.644Z" fill="#FDB797"/>
<path opacity="0.1" d="M388.36 262.415C395.147 264.963 402.618 264.985 409.42 262.476V259.877H388.36V262.415Z" fill="black"/>
<path d="M398.923 263.832C415.592 263.832 429.106 250.259 429.106 233.516C429.106 216.773 415.592 203.2 398.923 203.2C382.253 203.2 368.74 216.773 368.74 233.516C368.74 250.259 382.253 263.832 398.923 263.832Z" fill="#FDB797"/>
<path d="M369.364 237.507C370.915 237.507 372.173 235.14 372.173 232.22C372.173 229.3 370.915 226.933 369.364 226.933C367.813 226.933 366.555 229.3 366.555 232.22C366.555 235.14 367.813 237.507 369.364 237.507Z" fill="#FDB797"/>
<path d="M428.326 237.507C429.877 237.507 431.134 235.14 431.134 232.22C431.134 229.3 429.877 226.933 428.326 226.933C426.774 226.933 425.517 229.3 425.517 232.22C425.517 235.14 426.774 237.507 428.326 237.507Z" fill="#FDB797"/>
<path d="M390.832 233.661H383.144C381.702 233.661 380.533 234.835 380.533 236.283V237.525C380.533 238.973 381.702 240.147 383.144 240.147H390.832C392.274 240.147 393.443 238.973 393.443 237.525V236.283C393.443 234.835 392.274 233.661 390.832 233.661Z" stroke="#333333" stroke-width="2" stroke-miterlimit="10"/>
<path d="M407.019 240.141H414.707C416.149 240.141 417.318 238.967 417.318 237.519V236.277C417.318 234.829 416.149 233.655 414.707 233.655H407.019C405.577 233.655 404.408 234.829 404.408 236.277V237.519C404.408 238.967 405.577 240.141 407.019 240.141Z" stroke="#333333" stroke-width="2" stroke-miterlimit="10"/>
<path d="M392.951 234.287C392.951 234.287 397.044 232.057 404.654 234.287" stroke="#333333" stroke-width="2" stroke-miterlimit="10"/>
<path d="M419.791 211.543L427.197 228.826C427.197 228.826 436.254 217.36 419.791 211.543Z" fill="#858585"/>
<path d="M417.318 236.904L428.374 226.987" stroke="#333333" stroke-width="2" stroke-linecap="round" stroke-linejoin="round"/>
<path d="M378.066 211.543L370.66 228.826C370.66 228.826 361.603 217.36 378.066 211.543Z" fill="#858585"/>
<path d="M380.533 236.904L369.328 226.987" stroke="#333333" stroke-width="2" stroke-linecap="round" stroke-linejoin="round"/>
<g opacity="0.5">
<path opacity="0.5" d="M70.0534 447.989C108.468 447.989 139.608 416.711 139.608 378.127C139.608 339.544 108.468 308.266 70.0534 308.266C31.6392 308.266 0.498291 339.544 0.498291 378.127C0.498291 416.711 31.6392 447.989 70.0534 447.989Z" fill="url(#paint6_linear)"/>
</g>
<path d="M70.0531 446.132C107.655 446.132 138.138 415.515 138.138 377.748C138.138 339.98 107.655 309.363 70.0531 309.363C32.451 309.363 1.96851 339.98 1.96851 377.748C1.96851 415.515 32.451 446.132 70.0531 446.132Z" fill="#F5F5F5"/>
<path d="M107.715 383.896C107.715 409.082 91.3537 437.12 71.1696 437.12C50.9855 437.12 34.6426 409.082 34.6426 383.896C34.6426 358.71 51.0035 345.918 71.1876 345.918C91.3718 345.918 107.715 358.716 107.715 383.896Z" fill="#FDD835"/>
<path d="M70.2453 446.343C83.5499 446.365 96.5667 442.452 107.673 435.094C105.164 421.325 95.6149 420.536 95.6149 420.536H42.973C42.973 420.536 33.9703 421.277 31.1494 433.948C42.5949 442.035 56.2519 446.364 70.2453 446.343Z" fill="#1D454D"/>
<path opacity="0.1" d="M58.9258 403.735H79.9861V420.657C79.9861 423.461 78.877 426.15 76.9028 428.133C74.9286 430.116 72.2509 431.23 69.459 431.23C66.667 431.23 63.9894 430.116 62.0151 428.133C60.0409 426.15 58.9318 423.461 58.9318 420.657V403.735H58.9258Z" fill="black"/>
<path d="M60.9365 402.952H77.9756C78.5089 402.952 79.0203 403.164 79.3974 403.543C79.7744 403.922 79.9863 404.436 79.9863 404.971V419.873C79.9863 422.677 78.8771 425.367 76.9029 427.35C74.9287 429.332 72.2511 430.446 69.4591 430.446C66.6671 430.446 63.9895 429.332 62.0152 427.35C60.041 425.367 58.9319 422.677 58.9319 419.873V404.971C58.9319 404.437 59.1429 403.924 59.5187 403.545C59.8944 403.167 60.4043 402.953 60.9365 402.952Z" fill="#FDB797"/>
<path opacity="0.1" d="M58.9678 411.722C65.755 414.27 73.2265 414.292 80.0281 411.783V409.185H58.9678V411.722Z" fill="black"/>
<path d="M69.531 413.139C86.2007 413.139 99.7142 399.566 99.7142 382.823C99.7142 366.08 86.2007 352.507 69.531 352.507C52.8614 352.507 39.3479 366.08 39.3479 382.823C39.3479 399.566 52.8614 413.139 69.531 413.139Z" fill="#FDB797"/>
<path d="M39.9722 386.814C41.5235 386.814 42.781 384.447 42.781 381.527C42.781 378.607 41.5235 376.24 39.9722 376.24C38.4209 376.24 37.1633 378.607 37.1633 381.527C37.1633 384.447 38.4209 386.814 39.9722 386.814Z" fill="#FDB797"/>
<path d="M98.9338 386.814C100.485 386.814 101.743 384.447 101.743 381.527C101.743 378.607 100.485 376.24 98.9338 376.24C97.3826 376.24 96.125 378.607 96.125 381.527C96.125 384.447 97.3826 386.814 98.9338 386.814Z" fill="#FDB797"/>
<path opacity="0.1" d="M42.7869 366.378C42.7869 366.378 59.85 389.834 98.9819 381.822C98.9819 381.822 103.351 376.481 92.716 360.085C82.0808 343.688 52.4678 346.358 42.7869 366.378Z" fill="black"/>
<path d="M42.7869 365.998C42.7869 365.998 59.85 389.454 98.9819 381.442C98.9819 381.442 103.351 376.101 92.716 359.705C82.0808 343.308 52.4678 345.978 42.7869 365.998Z" fill="#FDD835"/>
<g opacity="0.5">
<path opacity="0.5" d="M235.289 456C273.703 456 304.844 424.722 304.844 386.139C304.844 347.555 273.703 316.277 235.289 316.277C196.875 316.277 165.734 347.555 165.734 386.139C165.734 424.722 196.875 456 235.289 456Z" fill="url(#paint7_linear)"/>
</g>
<path d="M235.427 454.077C273.029 454.077 303.512 423.46 303.512 385.692C303.512 347.925 273.029 317.308 235.427 317.308C197.825 317.308 167.343 347.925 167.343 385.692C167.343 423.46 197.825 454.077 235.427 454.077Z" fill="#F5F5F5"/>
<path d="M272.885 392.432C272.885 415.183 256.614 426.377 235.481 426.377C214.349 426.377 196.374 415.183 196.374 392.432C196.374 369.682 213.503 351.241 234.629 351.241C255.756 351.241 272.885 369.664 272.885 392.432Z" fill="#333333"/>
<path d="M235.481 454.348C248.788 454.372 261.807 450.459 272.915 443.1C270.406 429.331 260.857 428.542 260.857 428.542H208.209C208.209 428.542 199.206 429.283 196.385 441.954C207.831 450.041 221.488 454.37 235.481 454.348Z" fill="#1D454D"/>
<path opacity="0.1" d="M224.162 411.729H245.222V428.65C245.225 430.042 244.953 431.421 244.424 432.707C243.894 433.994 243.117 435.162 242.137 436.147C241.156 437.131 239.992 437.911 238.711 438.442C237.43 438.973 236.057 439.244 234.671 439.241C231.879 439.241 229.201 438.127 227.227 436.144C225.253 434.161 224.144 431.472 224.144 428.668V411.729H224.162Z" fill="black"/>
<path d="M226.166 410.963H243.206C243.739 410.963 244.25 411.176 244.627 411.555C245.004 411.933 245.216 412.447 245.216 412.983V427.884C245.216 429.274 244.943 430.651 244.413 431.935C243.883 433.219 243.106 434.385 242.127 435.367C241.147 436.349 239.984 437.128 238.705 437.658C237.426 438.189 236.055 438.46 234.671 438.458C231.879 438.458 229.201 437.344 227.227 435.361C225.253 433.378 224.144 430.689 224.144 427.884V412.977C224.144 412.441 224.356 411.927 224.733 411.549C225.11 411.17 225.621 410.957 226.154 410.957L226.166 410.963Z" fill="#FDA57D"/>
<path opacity="0.1" d="M224.204 419.734C230.991 422.282 238.463 422.303 245.264 419.794V417.196H224.204V419.734Z" fill="black"/>
<path d="M234.767 421.145C251.437 421.145 264.95 407.572 264.95 390.829C264.95 374.086 251.437 360.513 234.767 360.513C218.097 360.513 204.584 374.086 204.584 390.829C204.584 407.572 218.097 421.145 234.767 421.145Z" fill="#FDA57D"/>
<path opacity="0.1" d="M199.981 392.812C199.981 392.812 218.778 390.521 232.991 372.22C232.991 372.22 251.788 393.005 264.884 390.714C264.884 390.714 272.477 382.703 264.884 374.697C257.292 366.692 251.404 356.582 241.345 357.915C231.286 359.247 218.94 359.82 213.629 364.588C208.317 369.356 199.981 392.812 199.981 392.812Z" fill="black"/>
<path d="M199.981 392.432C199.981 392.432 218.778 390.141 232.991 371.84C232.991 371.84 251.788 392.625 264.884 390.334C264.884 390.334 272.477 382.323 264.884 374.317C257.292 366.312 251.404 356.202 241.345 357.535C231.286 358.867 218.964 359.415 213.653 364.238C208.341 369.061 199.981 392.432 199.981 392.432Z" fill="#333333"/>
<path d="M204.572 396.091C206.123 396.091 207.381 393.724 207.381 390.804C207.381 387.885 206.123 385.518 204.572 385.518C203.021 385.518 201.763 387.885 201.763 390.804C201.763 393.724 203.021 396.091 204.572 396.091Z" fill="#FDA57D"/>
<path d="M264.944 396.091C266.496 396.091 267.753 393.724 267.753 390.804C267.753 387.885 266.496 385.518 264.944 385.518C263.393 385.518 262.135 387.885 262.135 390.804C262.135 393.724 263.393 396.091 264.944 396.091Z" fill="#FDA57D"/>
</g>
<defs>
<linearGradient id="paint0_linear" x1="70.0534" y1="143.46" x2="70.0534" y2="3.74333" gradientUnits="userSpaceOnUse">
<stop stop-color="#808080" stop-opacity="0.25"/>
<stop offset="0.54" stop-color="#808080" stop-opacity="0.12"/>
<stop offset="1" stop-color="#808080" stop-opacity="0.1"/>
</linearGradient>
<linearGradient id="paint1_linear" x1="53730.1" y1="68649.2" x2="53730.1" y2="36265.7" gradientUnits="userSpaceOnUse">
<stop stop-color="#808080" stop-opacity="0.25"/>
<stop offset="0.54" stop-color="#808080" stop-opacity="0.12"/>
<stop offset="1" stop-color="#808080" stop-opacity="0.1"/>
</linearGradient>
<linearGradient id="paint2_linear" x1="53714.7" y1="32456.4" x2="53714.7" y2="71.5662" gradientUnits="userSpaceOnUse">
<stop stop-color="#808080" stop-opacity="0.25"/>
<stop offset="0.54" stop-color="#808080" stop-opacity="0.12"/>
<stop offset="1" stop-color="#808080" stop-opacity="0.1"/>
</linearGradient>
<linearGradient id="paint3_linear" x1="92311.1" y1="32383.5" x2="92311.1" y2="0" gradientUnits="userSpaceOnUse">
<stop stop-color="#808080" stop-opacity="0.25"/>
<stop offset="0.54" stop-color="#808080" stop-opacity="0.12"/>
<stop offset="1" stop-color="#808080" stop-opacity="0.1"/>
</linearGradient>
<linearGradient id="paint4_linear" x1="16121.5" y1="67584.1" x2="16121.5" y2="35200.6" gradientUnits="userSpaceOnUse">
<stop stop-color="#808080" stop-opacity="0.25"/>
<stop offset="0.54" stop-color="#808080" stop-opacity="0.12"/>
<stop offset="1" stop-color="#808080" stop-opacity="0.1"/>
</linearGradient>
<linearGradient id="paint5_linear" x1="92914.6" y1="69387.3" x2="92914.6" y2="37003.8" gradientUnits="userSpaceOnUse">
<stop stop-color="#808080" stop-opacity="0.25"/>
<stop offset="0.54" stop-color="#808080" stop-opacity="0.12"/>
<stop offset="1" stop-color="#808080" stop-opacity="0.1"/>
</linearGradient>
<linearGradient id="paint6_linear" x1="16237.4" y1="104143" x2="16237.4" y2="71759.6" gradientUnits="userSpaceOnUse">
<stop stop-color="#808080" stop-opacity="0.25"/>
<stop offset="0.54" stop-color="#808080" stop-opacity="0.12"/>
<stop offset="1" stop-color="#808080" stop-opacity="0.1"/>
</linearGradient>
<linearGradient id="paint7_linear" x1="54701.1" y1="106008" x2="54701.1" y2="73624.5" gradientUnits="userSpaceOnUse">
<stop stop-color="#808080" stop-opacity="0.25"/>
<stop offset="0.54" stop-color="#808080" stop-opacity="0.12"/>
<stop offset="1" stop-color="#808080" stop-opacity="0.1"/>
</linearGradient>
<clipPath id="clip0">
<rect width="469" height="456" fill="white"/>
</clipPath>
</defs>
</svg>
