<?xml version="1.0"?>
<svg xmlns="http://www.w3.org/2000/svg" height="512px" version="1.1" viewBox="0 0 881.25 881.25" width="512px"><g><g id="surface1">
<path d="M 126.988281 198.277344 C 222.457031 100.359375 343.125 44.210938 458.054688 44.210938 C 530.9375 41.9375 601.539062 69.800781 653.226562 121.226562 C 745.332031 215.683594 720.054688 395.296875 596.882812 521.609375 C 562.714844 558.625 515.382812 580.742188 465.0625 583.207031 C 437.015625 584.132812 409.820312 573.460938 389.878906 553.714844 C 375.972656 535.984375 373.460938 511.84375 383.429688 491.632812 C 384.398438 492.75 385.117188 494.027344 386.179688 495.085938 C 397.929688 506.585938 413.796875 512.890625 430.242188 512.59375 C 434.484375 512.519531 438.707031 512.085938 442.871094 511.285156 C 477.152344 528.085938 524.726562 516.660156 558.90625 481.617188 C 635.921875 402.640625 649.96875 288.550781 590.203125 227.273438 C 546.648438 183.691406 487.046875 159.984375 425.449219 161.753906 C 332.347656 161.753906 235.140625 206.683594 158.742188 285.039062 C -18.390625 466.636719 -52.078125 727.585938 83.597656 866.722656 L 93.441406 876.8125 L 114.472656 856.25 L 104.632812 846.164062 C -20.019531 718.394531 13.671875 475.875 179.742188 305.5 C 250.660156 232.769531 340.203125 191.070312 425.4375 191.070312 C 479.097656 189.382812 531.078125 209.882812 569.148438 247.734375 C 617.871094 297.664062 603.84375 393.390625 537.851562 461.039062 C 524.1875 475.46875 506.246094 485.113281 486.671875 488.550781 C 487.007812 488.226562 487.386719 488.015625 487.726562 487.679688 C 501.640625 474.097656 510.355469 456.058594 512.375 436.71875 C 512.648438 432.882812 512.609375 429.023438 512.265625 425.191406 C 540.023438 383.90625 540.171875 335.59375 512.402344 307 C 486.984375 281.5 452.171875 267.613281 416.179688 268.625 C 357.882812 270.8125 302.859375 296.191406 263.339844 339.117188 C 129.132812 476.726562 103.859375 674.742188 207.007812 780.523438 C 264.164062 837.691406 342.367188 868.757812 423.171875 866.414062 C 545.996094 866.414062 674.335938 807.03125 775.277344 703.5 L 788.25 690.210938 L 767.21875 669.648438 L 754.257812 682.9375 C 658.792969 780.828125 538.121094 836.984375 423.171875 836.984375 C 350.296875 839.242188 279.707031 811.386719 228.023438 759.960938 C 135.917969 665.503906 161.191406 485.890625 284.359375 359.574219 C 318.535156 322.570312 365.867188 300.445312 416.1875 297.976562 C 444.242188 297.074219 471.4375 307.765625 491.367188 327.535156 C 505.40625 345.242188 507.945312 369.476562 497.894531 389.71875 C 496.90625 388.554688 496.152344 387.25 495.070312 386.164062 C 480.023438 371.835938 458.910156 365.800781 438.570312 370.003906 C 404.292969 353.054688 356.597656 364.484375 322.363281 399.585938 C 245.34375 478.5625 231.296875 592.65625 291.0625 653.929688 C 334.617188 697.515625 394.21875 721.214844 455.8125 719.453125 C 548.921875 719.453125 646.117188 674.523438 722.519531 596.167969 C 899.640625 414.609375 933.328125 153.664062 797.652344 14.527344 L 787.804688 4.4375 L 766.777344 24.96875 L 776.617188 35.058594 C 901.269531 162.84375 867.578125 405.429688 701.507812 575.734375 C 630.589844 648.46875 541.046875 690.164062 455.8125 690.164062 C 402.152344 691.84375 350.164062 671.347656 312.09375 633.5 C 263.378906 583.5625 277.402344 487.84375 343.394531 420.195312 C 357.050781 405.78125 374.980469 396.140625 394.535156 392.699219 C 394.214844 393.003906 393.847656 393.222656 393.523438 393.550781 C 379.609375 407.140625 370.894531 425.171875 368.875 444.515625 C 368.578125 448.511719 368.613281 452.515625 368.980469 456.5 C 341.953125 496.996094 341.074219 545.820312 368.847656 574.238281 C 394.265625 599.730469 429.078125 613.617188 465.070312 612.617188 C 523.367188 610.425781 578.390625 585.042969 617.90625 542.113281 C 752.117188 404.511719 777.398438 206.492188 674.242188 100.710938 C 617.070312 43.558594 538.867188 12.496094 458.054688 14.828125 C 335.253906 14.828125 206.90625 74.21875 105.96875 177.742188 L 93 190.96875 L 114.03125 211.527344 Z M 414.289062 414.289062 C 423.910156 404.226562 437.09375 398.34375 451.007812 397.898438 C 459.6875 397.660156 468.089844 400.921875 474.335938 406.945312 C 481.203125 414.214844 484.433594 424.1875 483.148438 434.105469 C 481.75 446.601562 476.035156 458.222656 466.992188 466.960938 C 448.421875 485.507812 421.460938 488.828125 406.976562 474.300781 C 400.109375 467.035156 396.875 457.0625 398.164062 447.144531 C 399.546875 434.648438 405.253906 423.027344 414.289062 414.289062 Z M 414.289062 414.289062 " data-original="#000000" class="active-path" data-old_color="#000000" fill="#F8F7F2"/>
<path d="M 29.375 88.121094 L 58.75 88.121094 L 58.75 58.75 L 88.121094 58.75 L 88.121094 29.375 L 58.75 29.375 L 58.75 0 L 29.375 0 L 29.375 29.375 L 0 29.375 L 0 58.75 L 29.375 58.75 Z M 29.375 88.121094 " data-original="#000000" class="active-path" data-old_color="#000000" fill="#F8F7F2"/>
<path d="M 29.375 249.6875 L 58.746094 249.6875 L 58.746094 279.058594 L 29.375 279.058594 Z M 29.375 249.6875 " data-original="#000000" class="active-path" data-old_color="#000000" fill="#F8F7F2"/>
<path d="M 807.8125 881.25 L 807.8125 851.875 L 837.1875 851.875 L 837.1875 822.496094 L 807.8125 822.496094 L 807.8125 793.125 L 778.4375 793.125 L 778.4375 822.496094 L 749.058594 822.496094 L 749.058594 851.875 L 778.4375 851.875 L 778.4375 881.25 Z M 807.8125 881.25 " data-original="#000000" class="active-path" data-old_color="#000000" fill="#F8F7F2"/>
<path d="M 675.621094 29.375 L 705 29.375 L 705 58.746094 L 675.621094 58.746094 Z M 675.621094 29.375 " data-original="#000000" class="active-path" data-old_color="#000000" fill="#F8F7F2"/>
<path d="M 851.875 602.183594 L 881.25 602.183594 L 881.25 631.5625 L 851.875 631.5625 Z M 851.875 602.183594 " data-original="#000000" class="active-path" data-old_color="#000000" fill="#F8F7F2"/>
<path d="M 190.9375 851.875 L 220.3125 851.875 L 220.3125 881.25 L 190.9375 881.25 Z M 190.9375 851.875 " data-original="#000000" class="active-path" data-old_color="#000000" fill="#F8F7F2"/>
<path d="M 0 352.5 L 29.375 352.5 L 29.375 381.871094 L 0 381.871094 Z M 0 352.5 " data-original="#000000" class="active-path" data-old_color="#000000" fill="#F8F7F2"/>
<path d="M 220.3125 0 L 249.6875 0 L 249.6875 29.375 L 220.3125 29.375 Z M 220.3125 0 " data-original="#000000" class="active-path" data-old_color="#000000" fill="#F8F7F2"/>
</g></g> </svg>
