<?xml version="1.0"?>
<svg xmlns="http://www.w3.org/2000/svg" xmlns:xlink="http://www.w3.org/1999/xlink" version="1.1" id="Capa_1" x="0px" y="0px" viewBox="0 0 481.505 481.505" style="enable-background:new 0 0 481.505 481.505;" xml:space="preserve" width="512px" height="512px" class=""><g><g>
	<g>
		<path d="M432.417,245.719c-15.709,3.207-27.985,15.483-31.192,31.192h-17.6c-3.236-15.698-15.502-27.964-31.2-31.2v-41.6    c21.643-4.428,35.599-25.563,31.171-47.206c-1.047-5.118-3.086-9.98-6.003-14.314l46.56-53.208    c20.373,9.281,44.412,0.29,53.694-20.083s0.29-44.412-20.083-53.694s-44.412-0.29-53.694,20.083    c-6.758,14.833-3.974,32.27,7.067,44.262l-45.024,51.456c-17.643-11.564-41.254-7.265-53.688,9.776l-34.184-19.736    c1.401-4.033,2.138-8.267,2.184-12.536c0-22.091-17.909-40-40-40c-22.091,0-40,17.909-40,40c0.053,4.296,0.807,8.555,2.232,12.608    l-34.16,19.728c-12.521-17.209-36.388-21.477-54.096-9.672l-40.64-40.64c12.23-18.477,7.165-43.37-11.312-55.599    C43.972,23.106,19.08,28.17,6.85,46.647s-7.165,43.37,11.312,55.599c13.425,8.886,30.862,8.886,44.287,0l40.64,40.64    c-12.191,18.365-7.185,43.135,11.18,55.326c4.341,2.882,9.205,4.885,14.316,5.898v41.6c-21.594,4.225-35.673,25.156-31.448,46.749    c0.979,5.004,2.91,9.774,5.688,14.051l-40,33.336c-6.599-4.512-14.406-6.929-22.4-6.936C18.206,332.803,0.107,350.729,0,372.948    c-0.107,22.219,17.819,40.318,40.038,40.425c22.219,0.107,40.318-17.819,40.425-40.038c0.038-7.811-2.199-15.464-6.438-22.025    l40-33.336c15.501,10.57,36.285,8.852,49.84-4.12l38.816,22.4c-1.439,4.067-2.201,8.342-2.256,12.656    c0.024,22.091,17.952,39.98,40.044,39.956c7.969-0.009,15.754-2.398,22.356-6.86l37,30.84c-2.242,5.059-3.401,10.531-3.4,16.064    c-0.189,22.258,17.702,40.456,39.96,40.645c22.258,0.189,40.456-17.702,40.645-39.96c0.189-22.258-17.702-40.456-39.96-40.645    c-10.328-0.088-20.295,3.793-27.845,10.84l-35.2-29.28c6.695-10.071,8.254-22.708,4.208-34.104l38.856-22.4    c15.967,15.158,41.199,14.502,56.357-1.466c5.176-5.453,8.705-12.258,10.179-19.63h17.6c4.418,21.645,25.547,35.61,47.192,31.192    c21.645-4.418,35.61-25.547,31.192-47.192C475.191,255.265,454.062,241.3,432.417,245.719z M440.425,28.91    c13.255,0,24,10.745,24,24s-10.745,24-24,24s-24-10.745-24-24S427.171,28.91,440.425,28.91z M40.425,92.91    c-13.255,0-24-10.745-24-24s10.745-24,24-24s24,10.745,24,24S53.68,92.91,40.425,92.91z M40.425,396.91c-13.255,0-24-10.745-24-24    s10.745-24,24-24s24,10.745,24,24S53.68,396.91,40.425,396.91z M336.425,404.91c13.255,0,24,10.745,24,24s-10.745,24-24,24    s-24-10.745-24-24S323.171,404.91,336.425,404.91z M344.425,140.91c13.255,0,24,10.745,24,24s-10.745,24-24,24s-24-10.745-24-24    S331.171,140.91,344.425,140.91z M240.425,84.91c13.255,0,24,10.745,24,24s-10.745,24-24,24s-24-10.745-24-24    S227.171,84.91,240.425,84.91z M112.425,164.91c0-13.255,10.745-24,24-24s24,10.745,24,24s-10.745,24-24,24    S112.425,178.165,112.425,164.91z M136.425,308.91c-13.255,0-24-10.745-24-24s10.745-24,24-24s24,10.745,24,24    S149.68,308.91,136.425,308.91z M240.425,372.91c-13.255,0-24-10.745-24-24s10.745-24,24-24s24,10.745,24,24    S253.68,372.91,240.425,372.91z M304.425,284.91c0.004,5.481,1.146,10.902,3.352,15.92l-37.544,21.68    c-14.288-16.465-39.218-18.229-55.683-3.941c-1.384,1.201-2.682,2.496-3.885,3.877l-37.552-21.68    c8.793-20.213-0.465-43.727-20.679-52.52c-2.524-1.098-5.154-1.932-7.849-2.488v-41.696c21.432-4.268,35.347-25.101,31.079-46.533    c-0.115-0.577-0.243-1.151-0.383-1.723l35.384-20.432c14.328,16.436,39.267,18.145,55.703,3.817    c1.377-1.2,2.668-2.494,3.865-3.873l35.36,20.408c-0.748,3.005-1.14,6.087-1.168,9.184c0.024,19.001,13.389,35.373,32,39.2v41.6    C317.814,249.538,304.449,265.91,304.425,284.91z M344.425,308.91c-13.255,0-24-10.745-24-24s10.745-24,24-24s24,10.745,24,24    S357.68,308.91,344.425,308.91z M440.425,308.91c-13.255,0-24-10.745-24-24s10.745-24,24-24s24,10.745,24,24    S453.68,308.91,440.425,308.91z" data-original="#000000" class="active-path" data-old_color="#000000" fill="#F8F7F2"/>
	</g>
</g></g> </svg>
